<mxfile modified="2022-05-20T01:05:58.420Z" host="app.diagrams.net" agent="5.0 (Windows NT 10.0; Win64; x64) AppleWebKit/537.36 (KHTML, like Gecko) Chrome/101.0.4951.54 Safari/537.36" etag="OYnPksvBXNYs5m8ExTn7" compressed="false" version="18.0.8" type="google">
  <diagram name="FUNCTIONALITY VIEW" id="5AOZUYO0YfYujflTMqnJ">
    <mxGraphModel grid="1" page="1" gridSize="10" guides="1" tooltips="1" connect="1" arrows="1" fold="1" pageScale="1" pageWidth="827" pageHeight="1169" math="0" shadow="0">
      <root>
        <mxCell id="nnQN9EBrJOCF9QBQiXjb-0" />
        <mxCell id="nnQN9EBrJOCF9QBQiXjb-1" value="Title" style="" parent="nnQN9EBrJOCF9QBQiXjb-0" />
        <mxCell id="nnQN9EBrJOCF9QBQiXjb-2" value="Functionality View" style="text;html=1;strokeColor=none;fillColor=none;align=center;verticalAlign=middle;whiteSpace=wrap;rounded=0;fontSize=48;opacity=30;" vertex="1" parent="nnQN9EBrJOCF9QBQiXjb-1">
          <mxGeometry x="160" y="200" width="480" height="320" as="geometry" />
        </mxCell>
        <mxCell id="nnQN9EBrJOCF9QBQiXjb-3" value="About" style="" parent="nnQN9EBrJOCF9QBQiXjb-0" />
        <UserObject label="" tooltip="ABOUT&#xa;&#xa;Diagrams which describe the Use Cases/Stakeholder Stories which the system must address. " id="nnQN9EBrJOCF9QBQiXjb-4">
          <mxCell style="shape=image;html=1;verticalAlign=top;verticalLabelPosition=bottom;labelBackgroundColor=#ffffff;imageAspect=0;aspect=fixed;image=https://cdn1.iconfinder.com/data/icons/hawcons/32/699014-icon-28-information-128.png;shadow=0;dashed=0;fontFamily=Helvetica;fontSize=12;fontColor=#000000;align=center;strokeColor=#000000;fillColor=#505050;dashPattern=1 1;" vertex="1" parent="nnQN9EBrJOCF9QBQiXjb-3">
            <mxGeometry x="660" y="380" width="20" height="20" as="geometry" />
          </mxCell>
        </UserObject>
      </root>
    </mxGraphModel>
  </diagram>
</mxfile>
